{
	"asset":{
		"generator":"Khronos glTF Blender I/O v4.2.57",
		"version":"2.0"
	},
	"scene":0,
	"scenes":[
		{
			"name":"Scene",
			"nodes":[
				2
			]
		}
	],
	"nodes":[
		{
			"mesh":0,
			"name":"Barrel",
			"translation":[
				0,
				0.24549488723278046,
				0.1684325784444809
			]
		},
		{
			"children":[
				0
			],
			"mesh":1,
			"name":"Turret",
			"translation":[
				0,
				0.3473958373069763,
				-0.09054453670978546
			]
		},
		{
			"children":[
				1
			],
			"mesh":2,
			"name":"Tank",
			"rotation":[
				0.70710688829422,
				0,
				0,
				0.7071066498756409
			]
		}
	],
	"materials":[
		{
			"doubleSided":true,
			"name":"Material.002",
			"pbrMetallicRoughness":{
				"baseColorFactor":[
					0.800000011920929,
					0.800000011920929,
					0.800000011920929,
					1
				],
				"metallicFactor":0.9409090876579285,
				"roughnessFactor":0.5
			}
		}
	],
	"meshes":[
		{
			"name":"Barrel",
			"primitives":[
				{
					"attributes":{
						"POSITION":0,
						"NORMAL":1,
						"TEXCOORD_0":2
					},
					"indices":3,
					"material":0
				}
			]
		},
		{
			"name":"Turret",
			"primitives":[
				{
					"attributes":{
						"POSITION":4,
						"NORMAL":5,
						"TEXCOORD_0":6
					},
					"indices":7,
					"material":0
				}
			]
		},
		{
			"name":"Body",
			"primitives":[
				{
					"attributes":{
						"POSITION":8,
						"NORMAL":9,
						"TEXCOORD_0":10
					},
					"indices":11,
					"material":0
				}
			]
		}
	],
	"accessors":[
		{
			"bufferView":0,
			"componentType":5126,
			"count":1885,
			"max":[
				0.12745092809200287,
				0.09095993638038635,
				0.704908013343811
			],
			"min":[
				-0.12745092809200287,
				-0.08652576804161072,
				-0.0001450549316359684
			],
			"type":"VEC3"
		},
		{
			"bufferView":1,
			"componentType":5126,
			"count":1885,
			"type":"VEC3"
		},
		{
			"bufferView":2,
			"componentType":5126,
			"count":1885,
			"type":"VEC2"
		},
		{
			"bufferView":3,
			"componentType":5123,
			"count":5688,
			"type":"SCALAR"
		},
		{
			"bufferView":4,
			"componentType":5126,
			"count":1963,
			"max":[
				0.27200645208358765,
				0.38427892327308655,
				0.2891324758529663
			],
			"min":[
				-0.27200645208358765,
				-4.143227982922326e-08,
				-0.2543095648288727
			],
			"type":"VEC3"
		},
		{
			"bufferView":5,
			"componentType":5126,
			"count":1963,
			"type":"VEC3"
		},
		{
			"bufferView":6,
			"componentType":5126,
			"count":1963,
			"type":"VEC2"
		},
		{
			"bufferView":7,
			"componentType":5123,
			"count":4752,
			"type":"SCALAR"
		},
		{
			"bufferView":8,
			"componentType":5126,
			"count":4015,
			"max":[
				0.3841862976551056,
				0.39500269293785095,
				0.6873633861541748
			],
			"min":[
				-0.3841862976551056,
				-0.12624092400074005,
				-0.6005414724349976
			],
			"type":"VEC3"
		},
		{
			"bufferView":9,
			"componentType":5126,
			"count":4015,
			"type":"VEC3"
		},
		{
			"bufferView":10,
			"componentType":5126,
			"count":4015,
			"type":"VEC2"
		},
		{
			"bufferView":11,
			"componentType":5123,
			"count":8844,
			"type":"SCALAR"
		}
	],
	"bufferViews":[
		{
			"buffer":0,
			"byteLength":22620,
			"byteOffset":0,
			"target":34962
		},
		{
			"buffer":0,
			"byteLength":22620,
			"byteOffset":22620,
			"target":34962
		},
		{
			"buffer":0,
			"byteLength":15080,
			"byteOffset":45240,
			"target":34962
		},
		{
			"buffer":0,
			"byteLength":11376,
			"byteOffset":60320,
			"target":34963
		},
		{
			"buffer":0,
			"byteLength":23556,
			"byteOffset":71696,
			"target":34962
		},
		{
			"buffer":0,
			"byteLength":23556,
			"byteOffset":95252,
			"target":34962
		},
		{
			"buffer":0,
			"byteLength":15704,
			"byteOffset":118808,
			"target":34962
		},
		{
			"buffer":0,
			"byteLength":9504,
			"byteOffset":134512,
			"target":34963
		},
		{
			"buffer":0,
			"byteLength":48180,
			"byteOffset":144016,
			"target":34962
		},
		{
			"buffer":0,
			"byteLength":48180,
			"byteOffset":192196,
			"target":34962
		},
		{
			"buffer":0,
			"byteLength":32120,
			"byteOffset":240376,
			"target":34962
		},
		{
			"buffer":0,
			"byteLength":17688,
			"byteOffset":272496,
			"target":34963
		}
	],
	"buffers":[
		{
			"byteLength":290184,
			"uri":"tank.bin"
		}
	]
}
