{
	"asset":{
		"generator":"Khronos glTF Blender I/O v4.2.57",
		"version":"2.0"
	},
	"scene":0,
	"scenes":[
		{
			"name":"Scene",
			"nodes":[
				2
			]
		}
	],
	"nodes":[
		{
			"mesh":0,
			"name":"Barrel",
			"translation":[
				0,
				-0.1684325784444809,
				0.24549487233161926
			]
		},
		{
			"name":"BulletSpawner",
			"rotation":[
				0,
				0.7071068286895752,
				0.7071068286895752,
				3.090861255827804e-08
			],
			"translation":[
				0,
				-0.9999998211860657,
				0.24999983608722687
			]
		},
		{
			"children":[
				0,
				1
			],
			"mesh":1,
			"name":"Turret",
			"rotation":[
				0,
				-0.7071068286895752,
				-0.7071068286895752,
				3.090862321641907e-08
			]
		}
	],
	"materials":[
		{
			"doubleSided":true,
			"name":"Material.001",
			"pbrMetallicRoughness":{
				"baseColorFactor":[
					0.800000011920929,
					0.800000011920929,
					0.800000011920929,
					1
				],
				"metallicFactor":0.9409090876579285,
				"roughnessFactor":0.5
			}
		}
	],
	"meshes":[
		{
			"name":"Barrel.001",
			"primitives":[
				{
					"attributes":{
						"POSITION":0,
						"NORMAL":1,
						"TEXCOORD_0":2
					},
					"indices":3,
					"material":0
				}
			]
		},
		{
			"name":"Turret.001",
			"primitives":[
				{
					"attributes":{
						"POSITION":4,
						"NORMAL":5,
						"TEXCOORD_0":6
					},
					"indices":7,
					"material":0
				}
			]
		}
	],
	"accessors":[
		{
			"bufferView":0,
			"componentType":5126,
			"count":1969,
			"max":[
				0.12745092809200287,
				0.0001450549316359684,
				0.09095993638038635
			],
			"min":[
				-0.12745092809200287,
				-0.704908013343811,
				-0.08652576804161072
			],
			"type":"VEC3"
		},
		{
			"bufferView":1,
			"componentType":5126,
			"count":1969,
			"type":"VEC3"
		},
		{
			"bufferView":2,
			"componentType":5126,
			"count":1969,
			"type":"VEC2"
		},
		{
			"bufferView":3,
			"componentType":5123,
			"count":5688,
			"type":"SCALAR"
		},
		{
			"bufferView":4,
			"componentType":5126,
			"count":1967,
			"max":[
				0.27200645208358765,
				0.2543095648288727,
				0.38427892327308655
			],
			"min":[
				-0.27200645208358765,
				-0.2891324758529663,
				-4.143227982922326e-08
			],
			"type":"VEC3"
		},
		{
			"bufferView":5,
			"componentType":5126,
			"count":1967,
			"type":"VEC3"
		},
		{
			"bufferView":6,
			"componentType":5126,
			"count":1967,
			"type":"VEC2"
		},
		{
			"bufferView":7,
			"componentType":5123,
			"count":4752,
			"type":"SCALAR"
		}
	],
	"bufferViews":[
		{
			"buffer":0,
			"byteLength":23628,
			"byteOffset":0,
			"target":34962
		},
		{
			"buffer":0,
			"byteLength":23628,
			"byteOffset":23628,
			"target":34962
		},
		{
			"buffer":0,
			"byteLength":15752,
			"byteOffset":47256,
			"target":34962
		},
		{
			"buffer":0,
			"byteLength":11376,
			"byteOffset":63008,
			"target":34963
		},
		{
			"buffer":0,
			"byteLength":23604,
			"byteOffset":74384,
			"target":34962
		},
		{
			"buffer":0,
			"byteLength":23604,
			"byteOffset":97988,
			"target":34962
		},
		{
			"buffer":0,
			"byteLength":15736,
			"byteOffset":121592,
			"target":34962
		},
		{
			"buffer":0,
			"byteLength":9504,
			"byteOffset":137328,
			"target":34963
		}
	],
	"buffers":[
		{
			"byteLength":146832,
			"uri":"tank_turret.bin"
		}
	]
}
