{
	"asset":{
		"generator":"Khronos glTF Blender I/O v4.2.57",
		"version":"2.0"
	},
	"scene":0,
	"scenes":[
		{
			"name":"Scene",
			"nodes":[
				0
			]
		}
	],
	"nodes":[
		{
			"mesh":0,
			"name":"Tank",
			"rotation":[
				0,
				-0.7071068286895752,
				-0.7071068286895752,
				3.090862321641907e-08
			]
		}
	],
	"materials":[
		{
			"doubleSided":true,
			"name":"Material.003",
			"pbrMetallicRoughness":{
				"baseColorFactor":[
					0.800000011920929,
					0.800000011920929,
					0.800000011920929,
					1
				],
				"metallicFactor":0.9409090876579285,
				"roughnessFactor":0.5
			}
		}
	],
	"meshes":[
		{
			"name":"Body.001",
			"primitives":[
				{
					"attributes":{
						"POSITION":0,
						"NORMAL":1,
						"TEXCOORD_0":2
					},
					"indices":3,
					"material":0
				}
			]
		}
	],
	"accessors":[
		{
			"bufferView":0,
			"componentType":5126,
			"count":4058,
			"max":[
				0.3841862976551056,
				0.6005414724349976,
				0.39500269293785095
			],
			"min":[
				-0.3841862976551056,
				-0.6873633861541748,
				-0.12624092400074005
			],
			"type":"VEC3"
		},
		{
			"bufferView":1,
			"componentType":5126,
			"count":4058,
			"type":"VEC3"
		},
		{
			"bufferView":2,
			"componentType":5126,
			"count":4058,
			"type":"VEC2"
		},
		{
			"bufferView":3,
			"componentType":5123,
			"count":8844,
			"type":"SCALAR"
		}
	],
	"bufferViews":[
		{
			"buffer":0,
			"byteLength":48696,
			"byteOffset":0,
			"target":34962
		},
		{
			"buffer":0,
			"byteLength":48696,
			"byteOffset":48696,
			"target":34962
		},
		{
			"buffer":0,
			"byteLength":32464,
			"byteOffset":97392,
			"target":34962
		},
		{
			"buffer":0,
			"byteLength":17688,
			"byteOffset":129856,
			"target":34963
		}
	],
	"buffers":[
		{
			"byteLength":147544,
			"uri":"tank_body.bin"
		}
	]
}
